<svg width="24" height="24" viewBox="0 0 24 24" fill="none" xmlns="http://www.w3.org/2000/svg">
<path d="M4 18.4681V9.51064C4 9.26809 4.05317 9.0383 4.1595 8.82128C4.26567 8.60425 4.4125 8.42553 4.6 8.28511L11.1 3.30638C11.3614 3.10213 11.66 3 11.996 3C12.332 3 12.6333 3.10213 12.9 3.30638L19.4 8.28511C19.5875 8.42553 19.7344 8.60425 19.8407 8.82128C19.9469 9.0383 20 9.26809 20 9.51064V18.4681C20 18.8894 19.8531 19.25 19.5595 19.5499C19.2656 19.85 18.9125 20 18.5 20H14.75C14.5375 20 14.3594 19.9266 14.2157 19.7797C14.0719 19.633 14 19.4511 14 19.234V14.617C14 14.4 13.9282 14.2181 13.7845 14.0711C13.6406 13.9244 13.4625 13.8511 13.25 13.8511H10.75C10.5375 13.8511 10.3594 13.9244 10.2157 14.0711C10.0719 14.2181 10 14.4 10 14.617V19.234C10 19.4511 9.92815 19.633 9.7845 19.7797C9.64065 19.9266 9.4625 20 9.25 20H5.5C5.0875 20 4.73442 19.85 4.44075 19.5499C4.14692 19.25 4 18.8894 4 18.4681Z" fill="white"/>
</svg>
