<svg width="28" height="27" viewBox="0 0 28 27" fill="none" xmlns="http://www.w3.org/2000/svg">
<path d="M17.9983 26.9997C16.5621 26.9997 15.1714 26.599 13.9626 25.8385C12.7634 26.5852 11.3837 26.9786 9.95886 26.9786C8.37582 26.9786 6.8537 26.49 5.55684 25.5655C3.61723 24.1747 2.45934 21.9336 2.45934 19.57C2.45934 18.9558 2.54321 18.3323 2.70909 17.7142C1.00914 16.3146 0 14.2083 0 12.0385C0 11.2622 0.124268 10.4916 0.369436 9.74756C1.32134 6.85667 3.99769 4.83149 7.06826 4.65456C8.20594 1.86212 10.972 0 14.0153 0C17.0764 0 19.8458 1.87934 20.9707 4.69743C24.0216 4.88887 26.6832 6.91193 27.6334 9.78499C27.8766 10.5283 28 11.298 28 12.0735C28 14.2595 26.9777 16.3778 25.2551 17.7803C25.4179 18.4086 25.5002 19.0168 25.5002 19.5905C25.5002 21.9517 24.3424 24.1928 22.4025 25.5854C21.1074 26.5109 19.5847 27 17.9979 27L17.9983 26.9997ZM15.131 24.9468C16.0217 25.4078 17.0047 25.6498 17.9983 25.6498C19.3012 25.6498 20.5479 25.2502 21.6029 24.4945C23.1836 23.357 24.1275 21.5236 24.1275 19.5905C24.1275 19.2704 24.0953 18.9389 24.0293 18.5844C23.6011 18.8187 23.2068 18.9914 22.8117 19.1188C22.0545 19.3565 21.2739 19.4767 20.4898 19.4767C20.3995 19.4767 20.3116 19.4694 20.2238 19.4604C20.0444 19.6666 19.8509 19.8655 19.6478 20.054L19.3953 20.2883L18.5894 19.1985L18.7852 19.0162L18.8675 18.9416C18.9055 18.9078 18.9432 18.8743 18.9778 18.8396C19.1709 18.6427 19.3505 18.4117 19.5177 18.1925C19.8326 17.778 20.1023 17.3243 20.3211 16.84L18.9306 16.3741C18.6509 16.9633 18.2609 17.5059 17.7918 17.9564C17.6206 18.12 17.4259 18.2782 17.1964 18.4404C17.1762 18.46 17.1545 18.4779 17.1306 18.4935C16.9111 18.6481 16.6671 18.7737 16.4585 18.8754C15.9249 19.1484 15.3531 19.3305 14.7588 19.4163L14.7518 20.8816C15.213 20.8254 15.6779 20.7186 16.1634 20.5576C16.4915 20.4541 16.7363 20.3626 16.9619 20.2587C17.013 20.2331 17.0715 20.201 17.1303 20.1691L17.2621 20.0984L17.4972 19.9755L18.3096 21.0794L18.0074 21.2449C17.7026 21.4118 17.4213 21.5478 17.1517 21.6577C16.9325 22.3944 16.616 23.0734 16.209 23.6813L16.2182 23.6879L16.0379 23.9304C16.0011 23.9799 15.9638 24.0289 15.9258 24.0771L15.8598 24.1675L15.8563 24.165C15.6321 24.444 15.3896 24.7055 15.1312 24.9474L15.131 24.9468ZM3.93218 18.527C3.8624 18.8882 3.82751 19.2378 3.82751 19.57C3.82751 21.5048 4.77389 23.3379 6.35908 24.4734C7.41136 25.2261 8.65619 25.6241 9.95916 25.6241C10.9429 25.6241 11.9159 25.3873 12.7971 24.9359C12.4764 24.633 12.1828 24.3015 11.9211 23.9467C11.4216 23.2734 11.0418 22.4938 10.792 21.6281C10.5303 21.5184 10.2763 21.3941 10.0198 21.2497L9.72379 21.083L10.5318 19.9794L10.7645 20.0945C10.8101 20.1172 10.8544 20.1418 10.8985 20.167C10.9313 20.1856 10.9637 20.204 10.9965 20.2203C11.2321 20.3291 11.492 20.4336 11.784 20.5358C12.2964 20.708 12.8146 20.8254 13.3267 20.8858L13.3361 19.4217C12.6934 19.3353 12.0766 19.1403 11.499 18.8405C11.3044 18.7387 11.0632 18.6125 10.8462 18.4527C10.8082 18.4235 10.7773 18.3996 10.7455 18.3709L10.7351 18.3645C10.5536 18.2287 10.3659 18.0883 10.1964 17.9199C9.74491 17.4781 9.38067 16.9711 9.11194 16.4106L7.71255 16.8558C7.9268 17.3259 8.18452 17.7615 8.48173 18.1544C8.66262 18.3987 8.83984 18.6116 9.02501 18.8079C9.06266 18.8467 9.10581 18.886 9.14867 18.9256C9.18356 18.9573 9.21846 18.9896 9.25273 19.0226L9.44097 19.2049L8.6415 20.2895L8.38868 20.0564C8.17411 19.8589 7.9672 19.6458 7.77132 19.4212C7.7704 19.4212 7.76948 19.4212 7.76856 19.4212C7.68255 19.4299 7.59685 19.4386 7.51054 19.4386C6.82155 19.4386 6.14666 19.3462 5.48002 19.1642L5.47726 19.1726C5.47726 19.1726 5.1363 19.063 5.10997 19.054L4.90184 18.9888L4.9046 18.9806C4.5875 18.8609 4.26612 18.7106 3.93341 18.5268L3.93218 18.527ZM12.4093 22.1012C12.5807 22.4771 12.7873 22.8295 13.027 23.1535C13.2942 23.5161 13.6088 23.8534 13.9647 24.1593C14.3422 23.8408 14.6605 23.5032 14.9335 23.1326C15.1586 22.8235 15.3556 22.485 15.5218 22.1239C14.9834 22.2323 14.4946 22.2839 14.016 22.2839C13.51 22.2839 12.989 22.2254 12.4093 22.1012ZM11.9251 17.5348L11.9447 17.5427L11.967 17.5562C12.6187 17.9325 13.3079 18.1233 14.0151 18.1233C14.7012 18.1233 15.3715 17.9431 16.007 17.5883C16.0161 17.5817 16.0419 17.5684 16.0675 17.5553C16.2573 17.4421 16.4306 17.319 16.6167 17.1688C16.6267 17.1589 16.6527 17.1378 16.6785 17.1181C17.5674 16.3445 18.0711 15.2554 18.0733 14.1207C18.0711 13.8434 18.042 13.5733 17.9876 13.3199C17.983 13.2969 17.9772 13.2813 17.972 13.265C17.9646 13.2423 17.9572 13.2193 17.9505 13.1947C17.8989 12.9727 17.8382 12.78 17.7675 12.6112C17.7523 12.5754 17.733 12.5345 17.7152 12.4992C17.1257 11.2029 15.8695 10.3106 14.4319 10.1597C14.4175 10.1597 14.3863 10.1561 14.3526 10.1528C14.2785 10.1458 14.2305 10.1391 14.1821 10.1325C14.1271 10.1246 14.072 10.1159 14.0144 10.1159C13.9507 10.1159 13.8908 10.1246 13.8307 10.1329C13.7809 10.1395 13.7316 10.1462 13.681 10.1503C13.648 10.1545 13.6034 10.1593 13.5586 10.1616C12.1473 10.3155 10.8973 11.2078 10.3151 12.4889C10.3075 12.5092 10.291 12.5409 10.2741 12.5717L10.26 12.5986C10.1841 12.7791 10.1278 12.9914 10.0794 13.1915L10.0706 13.2218L10.0562 13.2599C10.0516 13.2714 10.0464 13.2831 10.0433 13.2951C9.98395 13.5702 9.95334 13.8498 9.95334 14.1216C9.95487 15.253 10.4342 16.3029 11.3032 17.0767C11.3246 17.0949 11.3506 17.1176 11.3788 17.1447C11.5388 17.2806 11.7096 17.4058 11.8871 17.5155C11.8994 17.5218 11.9119 17.5284 11.9242 17.5355L11.9251 17.5348ZM22.1867 15.1832C22.0532 16.2108 21.7318 17.193 21.2409 18.0735C21.6437 18.0288 22.0275 17.9479 22.3875 17.8326C22.797 17.702 23.2071 17.5119 23.6353 17.2528C23.4459 16.7966 23.2227 16.3973 22.9564 16.0377C22.7339 15.7346 22.4762 15.4489 22.1867 15.1832ZM5.81518 17.8586C6.12371 17.9427 6.44019 18.0028 6.77014 18.0388C6.27491 17.1447 5.95505 16.1495 5.82864 15.1114C5.51552 15.3904 5.23792 15.6935 5.00069 16.0163C4.74298 16.3633 4.52352 16.7525 4.33254 17.2005C4.76441 17.4645 5.18435 17.6595 5.61041 17.7943L5.81518 17.8586ZM22.229 13.4815C22.9415 13.9642 23.5576 14.5557 24.0616 15.2418C24.3148 15.5848 24.5407 15.9702 24.747 16.411C25.9481 15.2666 26.6312 13.707 26.6346 12.0725C26.6302 11.4315 26.5287 10.8007 26.3325 10.2004C25.6061 8.00801 23.6901 6.43365 21.3847 6.09878C21.4723 6.55292 21.5148 6.98229 21.5148 7.40109C21.5148 8.2227 21.3627 9.05578 21.0627 9.88034C21.2109 10.1193 21.3532 10.3832 21.4863 10.6667L21.6312 10.9749L20.3007 11.4052L20.1504 11.0858C20.1204 11.0209 20.0904 10.9554 20.0554 10.8913C19.9272 10.6564 19.7861 10.407 19.6254 10.1775C19.3535 9.80038 19.0334 9.44626 18.6728 9.12341L17.8236 10.3372C18.2495 10.7552 18.5964 11.2286 18.8565 11.7483C18.9701 11.9754 19.0677 12.2121 19.1476 12.4524L19.1681 12.5216C19.2571 12.7903 19.32 13.0448 19.3576 13.2934C19.3988 13.5518 19.4397 13.8312 19.4397 14.1213C19.4397 14.4244 19.4123 14.7306 19.3586 15.0344L20.7674 15.5082C20.8644 15.0661 20.9164 14.6174 20.9219 14.1696L20.9192 14.1059C20.9192 13.8845 20.8873 13.6659 20.8537 13.4344L20.8274 13.2489C20.8181 13.1683 20.8044 13.0983 20.7904 13.0261L20.7242 12.662L22.0415 12.2452L22.1065 12.5802C22.1637 12.8751 22.2047 13.1777 22.229 13.4815ZM6.65107 6.05621C4.32457 6.37748 2.39445 7.95608 1.66782 10.1691C1.46795 10.7636 1.36694 11.3919 1.36694 12.0385C1.36694 13.6574 2.03939 15.208 3.22514 16.3525C3.42777 15.9249 3.64906 15.552 3.89637 15.2198C4.42343 14.5063 5.06558 13.8996 5.80598 13.4156C5.82864 13.1607 5.8669 12.8881 5.922 12.5871L5.98413 12.2471L7.30883 12.6695L7.24517 12.9777C7.22986 13.0503 7.21486 13.1221 7.20447 13.1958L7.18119 13.364C7.14845 13.597 7.11753 13.8175 7.11447 14.0427C7.11447 14.07 7.1108 14.0996 7.10622 14.1282C7.10743 14.589 7.15977 15.0588 7.262 15.5242L8.67791 15.0737C8.61609 14.7469 8.58609 14.4329 8.58609 14.121C8.58609 13.806 8.62864 13.5168 8.67455 13.251C8.7171 12.9839 8.7924 12.7323 8.85942 12.518C8.8683 12.4884 8.87994 12.4524 8.89156 12.4186C8.984 12.1492 9.0746 11.9343 9.17621 11.7423C9.47648 11.1471 9.88877 10.6151 10.4017 10.1593L9.51198 8.99417C9.08439 9.35169 8.71067 9.74965 8.39908 10.1811C8.25554 10.3822 8.13433 10.599 8.00577 10.8285L7.96873 10.8946C7.93568 10.955 7.90568 11.0202 7.87538 11.0861L7.72326 11.4082L6.38968 10.9786L6.53721 10.6693C6.67158 10.3873 6.81421 10.1232 6.96204 9.88217C6.66025 9.05275 6.50721 8.21877 6.50721 7.4017C6.50721 6.97836 6.55435 6.5351 6.65046 6.05651L6.65107 6.05621ZM14.0796 8.7656C14.3168 8.76983 14.5411 8.80274 14.7588 8.83475L14.8222 8.84411C15.4697 8.93922 16.096 9.15604 16.6871 9.48995L17.523 8.29365C17.0706 8.02945 16.5882 7.81597 16.0844 7.65714C15.7966 7.56414 15.5366 7.47989 15.2641 7.43158C15.1872 7.41739 15.1126 7.40924 15.0385 7.40049L14.6865 7.35731V5.98072L15.0382 6.03295C15.3222 6.07523 15.6163 6.13259 15.9335 6.20749C16.629 5.67968 17.3825 5.28532 18.1749 5.03441C18.5875 4.89792 19.0236 4.80402 19.5222 4.74605C18.4929 2.67196 16.3739 1.35153 14.0151 1.34851C11.6683 1.35153 9.55392 2.65867 8.51907 4.71252C9.00267 4.77141 9.42689 4.8638 9.82999 4.99636C10.6347 5.2509 11.4011 5.65763 12.1072 6.20568C12.3931 6.13622 12.6878 6.07825 12.9854 6.03326L13.3376 5.97982V7.357L13.0248 7.39596C12.9367 7.40683 12.8476 7.4177 12.7595 7.43189C12.5128 7.47658 12.2697 7.55298 12.0126 7.6342L11.9523 7.65291C11.5104 7.79121 11.0843 7.97177 10.6815 8.19009L11.5743 9.35561C12.0901 9.09986 12.6346 8.92926 13.1965 8.84682C13.451 8.80666 13.7047 8.76953 13.9742 8.765C13.9719 8.76289 13.9954 8.76076 14.0156 8.76076H14.0662L14.0799 8.7653L14.0796 8.7656ZM17.556 6.76488C18.4693 7.19818 19.3056 7.8066 20.0168 8.55545C20.1081 8.1472 20.1527 7.76644 20.1527 7.40139C20.1527 6.98199 20.0946 6.54869 19.971 6.05349C19.4822 6.09245 19.0194 6.17879 18.5924 6.31105C18.2432 6.42368 17.9003 6.57375 17.556 6.76518V6.76488ZM8.06729 6.01755C7.93844 6.52181 7.87783 6.96689 7.87783 7.40139C7.87783 7.76766 7.92129 8.14268 8.0125 8.55334C8.72812 7.79906 9.57044 7.18792 10.4911 6.75432C10.1367 6.55623 9.77337 6.39711 9.40577 6.27996C8.99808 6.14347 8.56865 6.05892 8.06729 6.01755Z" fill="#DEDEDE"/>
</svg>
