<svg width="20" height="20" viewBox="0 0 20 20" fill="none" xmlns="http://www.w3.org/2000/svg">
<g clip-path="url(#clip0_30_160)">
<path d="M11.9641 16.5923C10.8716 17.6847 9.56811 18.2321 8.05361 18.2343C6.53924 18.2367 5.24342 17.6993 4.16619 16.622C3.0891 15.5449 2.55 14.2474 2.54886 12.7296C2.54776 11.2118 3.09344 9.90656 4.18591 8.81409L10.2317 2.76832C11.0007 1.99933 11.9241 1.61548 13.0018 1.61667C14.0796 1.61789 14.9956 1.99561 15.7499 2.74986C16.5041 3.50411 16.8819 4.42014 16.883 5.4979C16.8843 6.57569 16.5004 7.49905 15.7314 8.26804L10.0038 13.9956C9.55835 14.4411 9.01938 14.6658 8.38691 14.6697C7.75445 14.6736 7.21562 14.453 6.77039 14.0078C6.32519 13.5626 6.10278 13.0255 6.10321 12.3965C6.10373 11.7674 6.33018 11.2267 6.78257 10.7743L12.1919 5.36498C12.3272 5.22974 12.486 5.16184 12.6685 5.16122C12.8507 5.16062 13.0091 5.22753 13.1435 5.36191C13.2778 5.49623 13.3437 5.65362 13.3413 5.83407C13.3389 6.01468 13.27 6.17255 13.1347 6.30778L7.72538 11.7172C7.54505 11.8975 7.45412 12.1194 7.45245 12.3829C7.45082 12.6465 7.54503 12.8732 7.73504 13.0632C7.92508 13.2533 8.14849 13.3441 8.40532 13.3358C8.66217 13.3274 8.8807 13.2331 9.06102 13.0528L14.7886 7.32523C15.2977 6.81612 15.5518 6.21109 15.5509 5.51013C15.55 4.8092 15.297 4.20618 14.792 3.70115C14.2869 3.19612 13.6847 2.94458 12.9853 2.94649C12.286 2.94843 11.6823 3.20329 11.1745 3.71113L5.12872 9.75689C4.30141 10.5842 3.88931 11.5722 3.89239 12.7208C3.8955 13.8694 4.30589 14.8525 5.12362 15.6703C5.9399 16.4866 6.92006 16.894 8.06416 16.8925C9.20826 16.8911 10.194 16.4768 11.0213 15.6495L16.7488 9.92189C16.8841 9.78665 17.0429 9.71875 17.2254 9.71812C17.4076 9.71753 17.566 9.78444 17.7004 9.91882C17.8347 10.0531 17.9006 10.2105 17.8982 10.391C17.8958 10.5716 17.8269 10.7295 17.6917 10.8647L11.9641 16.5923Z" fill="#747478"/>
</g>
<defs>
<clipPath id="clip0_30_160">
<rect width="20" height="20" fill="white"/>
</clipPath>
</defs>
</svg>
